<svg xmlns="http://www.w3.org/2000/svg" viewBox="0 0 100 100" width="100" height="100">
  <!-- Bombillo (bulb) -->
  <g transform="translate(50, 20)">
    <!-- Bulb body -->
    <ellipse cx="0" cy="0" rx="12" ry="16" fill="#ffd43b" stroke="#f59f00" stroke-width="1.5"/>
    
    <!-- Bulb base -->
    <rect x="-8" y="12" width="16" height="6" rx="2" fill="#868e96" stroke="#495057" stroke-width="1"/>
    
    <!-- Light rays -->
    <g stroke="#ffd43b" stroke-width="2" stroke-linecap="round">
      <line x1="-20" y1="-8" x2="-16" y2="-6"/>
      <line x1="20" y1="-8" x2="16" y2="-6"/>
      <line x1="-18" y1="8" x2="-14" y2="6"/>
      <line x1="18" y1="8" x2="14" y2="6"/>
      <line x1="0" y1="-24" x2="0" y2="-20"/>
    </g>
    
    <!-- Filament -->
    <path d="M -6,-8 Q 0,-4 6,-8 Q 0,0 -6,-8" fill="none" stroke="#f59f00" stroke-width="1" opacity="0.7"/>
  </g>
  
  <!-- Face (smiley) -->
  <g transform="translate(50, 65)">
    <!-- Face circle -->
    <circle cx="0" cy="0" r="20" fill="#51cf66" stroke="#37b24d" stroke-width="2"/>
    
    <!-- Eyes -->
    <circle cx="-7" cy="-5" r="2.5" fill="#2d2d2d"/>
    <circle cx="7" cy="-5" r="2.5" fill="#2d2d2d"/>
    
    <!-- Eye highlights -->
    <circle cx="-6.5" cy="-6" r="0.8" fill="#ffffff"/>
    <circle cx="7.5" cy="-6" r="0.8" fill="#ffffff"/>
    
    <!-- Smile -->
    <path d="M -10,5 Q 0,15 10,5" fill="none" stroke="#2d2d2d" stroke-width="2.5" stroke-linecap="round"/>
  </g>
  
  <!-- Connection line (subtle) -->
  <line x1="50" y1="38" x2="50" y2="45" stroke="#868e96" stroke-width="1.5" opacity="0.6"/>
</svg>